<?xml version="1.0" standalone="no"?><!DOCTYPE svg PUBLIC "-//W3C//DTD SVG 1.1//EN" "http://www.w3.org/Graphics/SVG/1.1/DTD/svg11.dtd"><svg t="1586330237859" class="icon" viewBox="0 0 1024 1024" version="1.1" xmlns="http://www.w3.org/2000/svg" p-id="1148" width="200" height="200" xmlns:xlink="http://www.w3.org/1999/xlink"><defs><style type="text/css"></style></defs><path d="M901.3 291.9c-5.1-14.9-16.2-27.2-29.5-34.6-50.9-27.7-100.3-58-148.7-90l-72.5-48.1-36.5-23.7-18.4-11.6-9.2-5.8-4.6-2.9-6.1-3.3c-16.4-8.4-36.9-10-54.8-4.2-18 5.5-34 18-43.7 34.8-5.1 8.3-7.9 17.8-9.5 27.3-1.2 10.6-1 16.6-1.3 24.1l-1.4 43.4-4.2 173.7c-0.8 29-1.6 57.9-2.8 86.9l-0.8 21.7c-0.1 1.4 0 4.7 0.1 7.3 0.2 2.7 0.1 5.4 0.6 8.2 0.9 5.4 1.8 10.9 3.7 16.2 6.8 21.4 22.4 39.7 42 50.3 3.5 1.9 7.1 3.5 10.8 4.9-1 0.3-2.1 0.5-3.1 0.8-14.6 4.3-27.7 14.4-35.6 28.1-4.2 6.7-6.5 14.5-7.9 22.2-1 8.9-0.9 13-1.2 18.7l-1.4 32.7-4.4 130.9c-0.8 21.8-1.6 43.6-2.8 65.4l-0.8 16.4c-0.1 1 0 3.8 0 5.9 0.1 2.3 0.1 4.5 0.4 6.8 0.7 4.6 1.4 9.2 3 13.6 5.6 18 18.6 33.4 35.1 42.5 16.4 9.1 37 11.9 55.8 6.8 9.1-2.2 19.3-8.1 22.5-9.9 4.8-2.7 9.6-5.2 14.3-8 18.9-10.8 37.5-22.3 56-33.9 36.9-23.3 71.6-50.5 105.7-78.6l25.8-20.8 6.7-5.4c2.6-2.2 5.2-4.4 7.4-7 4.6-5 8-10.9 10.2-16.9 4.6-12.2 4.3-25.4 0-36.8-4.2-11.5-12.8-20.8-23-26.4-38.5-20.5-75.5-43.7-111.5-68.5l-54-37.4-27.2-18.4-13.7-8.9-6.9-4.5-3.4-2.2-3.3-1.8c4.2-0.5 8.5-1.2 12.6-2.4 10.8-2.7 22.6-9.5 27.3-12.2 6.3-3.6 12.7-7 18.9-10.7 25.1-14.4 49.9-29.4 74.6-44.6 49.3-30.5 96.3-64.8 142.9-100.1l35.1-26.2c3-2.3 5.6-4 9-6.7 3.4-2.7 6.7-5.4 9.5-8.6 5.9-6.1 10.4-13.5 13.4-21.2 6.1-15.5 6.1-32.5 0.8-47.3zM599.5 628.8l59.4 28C698.5 675.5 737 696 774 719.1c8.5 5.6 14.8 14 16.7 23.6 2.1 9.4 0.1 19.5-4.9 26.9-2.4 3.8-5.6 6.8-9.2 9-1.7 1.2-3.7 2.1-5.6 2.9l-7.3 3-30.9 11.9c-41.4 15.5-82.3 31.9-120.9 52.3-19.3 10.2-38.5 20.6-57.3 31.6-8.6 4.9-21.9 13.2-21.1 12.3-2.1 0.9-4.8 1.3-7.6 0.2-2.9-0.8-5.6-2.8-7-5.5-0.5-0.6-0.6-1.4-1-2.2-0.2-0.4-0.1-0.9-0.3-1.3-0.1-0.6-0.3-0.5-0.3-2.3l-0.8-16.4c-1.2-21.8-2-43.6-2.8-65.4l-4.4-130.9-1.3-32.7c-0.6-13-1.1-16.7 1.7-22.7 2.4-5.5 7.4-10.4 13.5-12.8 6-2.5 12.9-2.8 19.3-0.2l57 28.4z m286.4-296.7c-3.1 5.4-7.5 9.9-12.4 13.3-2.3 1.9-5.1 3.2-7.7 4.5-2.6 1.3-6.5 2.9-9.6 4.3L816 371.5c-53.8 22.6-107 46.2-158.1 73.7-25.5 13.8-50.9 27.7-75.9 42.3-11.8 6.6-28 17-30.6 17.3-5.5 1.9-12 1.9-18-0.8-3-1.3-6-3-8.2-5.4-2.4-2.3-4.4-4.9-5.7-8-0.9-1.4-1.1-3.2-1.7-4.8-0.3-0.8-0.2-1.8-0.4-2.6-0.1-1-0.4-1.4-0.4-3.6l-0.8-21.7c-1.2-29-2-57.9-2.8-86.9L509 197.3l-1.3-43.4c-0.2-7-0.5-15.5-0.3-19.3 0.6-4.7 1.4-9.5 3.7-13.8 4.1-8.6 12-16 21.5-19.5 4.7-1.8 9.7-2.9 14.8-2.7 5.1-0.1 10.1 1 15 3.1l3.7 1.5 4.8 2.5 9.6 5 19.3 10.1 38.8 19.7 77.9 38.8c51.9 25.9 102.8 53.5 152.3 83.8 11.5 7.4 20.3 18.8 23.2 31.8 2.8 12.7 0.6 26.7-6.1 37.2zM419.9 511.1c-19.6-9.7-37.8-21.8-54.9-35.8l-25.6-21-13-10.2-6.6-4.9-3.3-2.4-1.7-1.2-3.1-1.8c-8.3-4.5-19-5.6-28.4-2.8-9.5 2.7-18 9-23.4 17.9-2.8 4.4-4.4 9.4-5.4 14.5-0.8 6.1-0.7 7.6-1 10.5l-1.4 16.4-4.4 65.4c-0.8 10.9-1.6 21.8-2.8 32.7l-0.8 8.2c-0.1 0.3-0.1 2.4-0.1 3.9 0.1 1.6 0.1 3.2 0.3 4.8 0.4 3.2 1 6.5 2 9.6 3.8 12.8 13 23.9 24.6 30.5 11.6 6.6 26.4 8.8 40 5.2 6.5-1.5 14.3-5.9 15.1-6.4l7.2-4c9.5-5.4 18.7-11.3 27.6-17.5 18-12.4 33.8-28.6 49.1-45.9l11.6-12.6c1.1-1.1 1.7-1.8 3.2-3.3 1.5-1.4 2.9-2.9 4.1-4.5 2.5-3.2 4.2-6.8 5.3-10.4 4.5-14.8-2.8-29.4-14.2-34.9z m-115.7 85c-0.1 0.3 0 0.5-0.1 0.7-0.1 0.1-0.2 0.9-0.3-0.2l-0.5-5.1c0.4 0.9 0.8 1.8 0.9 2.8 0.1 0.7 0.2 1.2 0 1.8z m115.5-57.2c-1.2 1.3-2.8 2.1-4.4 2.6-0.7 0.3-1.6 0.4-2.4 0.4-0.7 0.1-2.6 0.6-3.8 0.9l-16.7 3.7c-22.6 4.5-44.5 10.2-64.3 19.5-8.8 4.1-17.5 8.6-25.9 13.4-0.7-7.9-1.5-15.8-2-23.7l-4.4-65.4c-0.8-9.8-2-26.1-2.4-23.1-0.3-1.5 1.9-4.1 4.6-3.6h0.6l1.9 0.8 3.7 1.7 7.6 3.3 15.3 6.2 31 11.7c20.7 7.8 40.3 17.5 58.5 29.6 3.8 2.8 6.4 6.8 6.8 11.1 0.5 4.2-1 8.4-3.7 10.9z" fill="#2c2c2c" p-id="1149"></path></svg>